<?xml version="1.0" encoding="UTF-8" standalone="no"?>
<!-- Created with Inkscape (http://www.inkscape.org/) -->

<svg
   xmlns:dc="http://purl.org/dc/elements/1.1/"
   xmlns:cc="http://creativecommons.org/ns#"
   xmlns:rdf="http://www.w3.org/1999/02/22-rdf-syntax-ns#"
   xmlns:svg="http://www.w3.org/2000/svg"
   xmlns="http://www.w3.org/2000/svg"
   xmlns:sodipodi="http://sodipodi.sourceforge.net/DTD/sodipodi-0.dtd"
   xmlns:inkscape="http://www.inkscape.org/namespaces/inkscape"
   id="svg3023"
   version="1.1"
   inkscape:version="0.48.3.1 r9886"
   width="918"
   height="720"
   sodipodi:docname="LabIOSlam_logo1.eps">
  <metadata
     id="metadata3029">
    <rdf:RDF>
      <cc:Work
         rdf:about="">
        <dc:format>image/svg+xml</dc:format>
        <dc:type
           rdf:resource="http://purl.org/dc/dcmitype/StillImage" />
        <dc:title></dc:title>
      </cc:Work>
    </rdf:RDF>
  </metadata>
  <defs
     id="defs3027" />
  <sodipodi:namedview
     pagecolor="#ffffff"
     bordercolor="#666666"
     borderopacity="1"
     objecttolerance="10"
     gridtolerance="10"
     guidetolerance="10"
     inkscape:pageopacity="0"
     inkscape:pageshadow="2"
     inkscape:window-width="857"
     inkscape:window-height="685"
     id="namedview3025"
     showgrid="false"
     inkscape:zoom="1.0017346"
     inkscape:cx="466.44056"
     inkscape:cy="528.69844"
     inkscape:window-x="0"
     inkscape:window-y="25"
     inkscape:window-maximized="0"
     inkscape:current-layer="svg3023" />
  <g
     id="g3033"
     transform="translate(175.69524,-75.868398)"
     inkscape:export-xdpi="300"
     inkscape:export-ydpi="300">
    <path
       style="fill:#fbfafa"
       d="m -175.69524,437.86494 0,-360.000003 459,0 459,0 0,360.000003 0,360 -459,0 -459,0 0,-360 z"
       id="path3039"
       inkscape:connector-curvature="0" />
    <path
       style="fill:#b50707"
       d="m 245.30476,762.28216 c -1.375,-0.24159 -6.55,-1.30454 -11.5,-2.36211 -4.95,-1.05757 -11.7,-2.48373 -15,-3.16924 -3.3,-0.68551 -12.75,-1.32747 -21,-1.42657 -8.30665,-0.0998 -17.23112,-0.75302 -20,-1.46395 -3.69123,-0.94774 -13.93589,-1.2214 -39.13842,-1.0455 -37.18115,0.25951 -43.27717,-0.32505 -48.4075,-4.64194 -6.14254,-5.16861 -6.34657,-6.25165 -6.55732,-34.80791 -0.1388,-18.80671 0.19329,-27.98703 1.20035,-33.18208 1.45468,-7.50417 1.20326,-9.79681 -1.17443,-10.70922 -2.80982,-1.07823 -4.21675,0.65575 -8.97944,11.06676 -6.41945,14.0326 -12.17659,21.98372 -24.06265,33.23267 -18.46097,17.47142 -42.47969,30.67828 -60.14595,33.07166 -4.54596,0.61587 -10.11503,1.77237 -12.37573,2.56999 -2.61404,0.92228 -8.02567,1.45022 -14.86558,1.45022 -9.14469,0 -11.7838,0.38848 -17.62427,2.59433 -6.16778,2.32947 -7.94103,2.55392 -17.36906,2.19852 -8.069079,-0.30417 -11.426065,-0.87187 -14.5,-2.45209 -2.2,-1.13096 -10.465545,-5.28903 -18.36788,-9.24015 -16.85273,-8.42628 -22.78074,-13.47479 -32.27784,-27.489 -3.3961,-5.01138 -8.29869,-12.03661 -10.89464,-15.61161 -7.40048,-10.19152 -9.95964,-16.01177 -9.95964,-22.65103 0,-10.28237 4.9452,-16.91893 18,-24.15638 7.68313,-4.25944 11.80372,-4.8473 16.61963,-2.37101 5.61574,2.88757 8.65188,6.58599 13.28433,16.18209 12.380758,25.64667 31.349793,36.15128 69.88851,38.70261 10.57689,0.70021 17.528,-0.75049 32.35325,-6.75218 12.32345,-4.98889 18.39414,-8.64197 23.44574,-14.10863 8.44715,-9.14122 25.40643,-34.37502 27.78771,-41.34547 3.61816,-10.59101 2.99742,-26.04739 -1.53311,-38.17425 -4.9534,-13.25875 -25.12171,-25.36743 -44.53715,-26.73929 -5.0551,-0.35719 -10.62743,-1.15014 -12.38297,-1.76212 -2.41305,-0.84119 -5.66044,-0.77418 -13.3089,0.27463 -11.27958,1.54675 -15.68085,1.61401 -36.61704,0.55954 -10.75514,-0.54169 -16.695262,-1.36662 -23,-3.19413 -4.675,-1.3551 -10.3,-2.90843 -12.5,-3.45185 -5.40163,-1.33425 -9.72307,-4.12736 -12.96806,-8.38176 -2.8259,-3.70495 -7.05575,-14.95208 -8.51103,-22.63077 -1.58212,-8.3479 -4.20252,-34.08435 -3.62389,-35.59224 0.31566,-0.8226 1.04118,-6.45034 1.61225,-12.50609 0.88265,-9.35965 1.7373,-12.76398 5.70032,-22.70606 4.44279,-11.14571 12.13446,-25.68699 18.514154,-35.00145 11.75504,-17.16255 38.475466,-36.49643 63.776256,-46.14606 l 11.5,-4.38606 25,-0.40772 c 23.29234,-0.37987 25.99045,-0.23513 39.5,2.11907 20.05894,3.49552 37.03477,7.171 46.5,10.06785 4.4,1.34663 12.5,3.20524 18,4.13026 11.39773,1.91691 17.40303,4.5895 22.67698,10.0921 6.04275,6.30474 7.2032,10.59581 6.53716,24.17282 -0.40964,8.35032 -1.19282,13.36799 -2.75701,17.66358 -1.99359,5.47477 -2.23285,8.49486 -2.73321,34.5 -0.59235,30.78662 -0.60399,38.96553 -0.0903,63.5 0.46647,22.28038 -2.84963,95.3638 -4.68287,103.20552 -1.9014,8.13331 -1.84364,19.98947 0.13459,27.62369 0.87192,3.36485 1.679,9.77949 1.79353,14.25476 0.25162,9.83274 1.81427,12.72847 8.4555,15.66872 4.30341,1.90524 5.20915,1.96912 11.66566,0.82274 10.62241,-1.88606 30.87471,-2.43511 40,-1.08442 4.4,0.65127 14.075,1.53568 21.5,1.96536 7.425,0.42968 17.1089,1.35228 21.51978,2.05021 7.55619,1.19562 8.25847,1.1472 12.14922,-0.83772 2.2712,-1.15868 5.0371,-3.58318 6.14644,-5.38777 2.3488,-3.82087 4.75178,-12.74558 5.72992,-21.28109 0.37817,-3.3 1.95725,-10.05 3.50908,-15 1.55182,-4.95 3.57571,-13.5 4.49752,-19 0.92181,-5.5 2.54069,-13.15 3.59752,-17 1.05683,-3.85 2.5683,-10.825 3.35883,-15.5 0.79052,-4.675 3.46779,-14.8 5.94949,-22.5 13.94488,-43.26707 16.89697,-52.96493 19.0254,-62.5 1.2891,-5.775 3.22715,-12.75 4.30678,-15.5 5.5301,-14.08605 12.03849,-35.67568 12.63711,-41.91979 0.36487,-3.80589 1.51749,-8.98089 2.56137,-11.5 7.56163,-18.2479 11.64834,-30.82437 13.49631,-41.5337 2.10855,-12.2196 10.82805,-20.54651 21.5152,-20.54651 8.36005,0 16.96457,5.94291 19.62476,13.55429 5.21635,14.92512 6.71745,19.90426 7.84379,26.01778 0.71662,3.88964 2.65108,10.18964 4.29881,14 1.64773,3.81036 3.54462,8.72793 4.21533,10.92793 0.6707,2.2 2.75722,7.03016 4.63671,10.7337 3.10822,6.12475 7.50129,19.78973 11.79845,36.70004 0.8992,3.53855 2.72495,8.93855 4.05723,12 1.33227,3.06144 2.91497,8.9286 3.51711,13.03813 0.60214,4.10953 2.18342,9.95953 3.51396,13 1.33054,3.04047 3.14849,8.45313 4.03989,12.02813 0.89139,3.575 2.91233,9.45287 4.49096,13.06194 1.57863,3.60906 3.36366,8.76368 3.96673,11.4547 0.60307,2.69102 2.1722,7.61314 3.48695,10.93806 1.31475,3.32491 3.53163,10.14583 4.9264,15.1576 1.39477,5.01176 3.42392,11.18385 4.50922,13.71576 1.0853,2.53191 2.47599,7.43138 3.09042,10.88771 1.65106,9.28767 8.47414,30.14015 12.85408,39.28423 2.10756,4.4 5.09004,11.375 6.62771,15.5 3.49191,9.36744 7.05527,14.83527 11.27362,17.29893 3.26536,1.90707 3.28454,1.90585 12.99903,-0.82623 12.04328,-3.38701 14.82285,-4.76888 16.57373,-8.23963 1.82914,-3.6259 2.901,-39.17501 1.58998,-52.73307 -0.53183,-5.5 -1.37297,-18.775 -1.86921,-29.5 -0.81674,-17.65187 -1.16751,-20.21082 -3.701,-27 -2.69408,-7.21951 -2.80474,-8.24798 -2.95904,-27.5 -0.22983,-28.67676 -2.12616,-64.26199 -3.99014,-74.87637 -1.17425,-6.68671 -1.67652,-17.13664 -1.88045,-39.12363 -0.30608,-33.00017 0.43078,-44.73043 3.1592,-50.29245 4.14653,-8.45291 14.11497,-10.7563 22.50364,-5.19987 5.40901,3.58278 8.46828,7.79359 13.34797,18.37229 1.99915,4.33399 5.461,10.85899 7.693,14.5 2.232,3.64102 5.32777,9.44422 6.8795,12.896 1.55173,3.45179 4.1163,8.17679 5.69906,10.5 1.58275,2.32322 5.66627,9.58257 9.07448,16.1319 3.40821,6.54932 7.00139,13.07432 7.98483,14.5 3.4292,4.97123 11.98509,21.33828 22.16157,42.39411 1.8081,3.74109 4.14434,7.26057 5.19164,7.82107 3.24266,1.73542 6.30849,-1.25154 8.54508,-8.32525 1.09519,-3.46379 4.82101,-13.0478 8.27961,-21.2978 7.41431,-17.68581 15.60743,-41.05066 20.51361,-58.5 5.03861,-17.9203 11.04181,-35.11846 15.88227,-45.5 4.6221,-9.9132 9.02943,-14.66468 15.36256,-16.56213 3.33261,-0.99848 4.38234,-0.87884 7.86126,0.89597 4.45932,2.27498 9.909,7.97907 11.49081,12.02725 0.56713,1.4514 1.40758,8.71391 1.86766,16.13891 0.6125,9.88456 1.49553,15.50858 3.29723,21 1.35338,4.125 3.22153,11.325 4.15144,16 0.9299,4.675 2.76237,12.325 4.07215,17 2.69068,9.60385 4.4464,22.26604 4.4464,32.06722 0,3.84525 0.77886,8.88566 1.85834,12.02623 2.5883,7.53023 3.48233,17.51319 2.20115,24.57847 -0.84797,4.67629 -0.77308,6.95875 0.35675,10.87339 2.10434,7.29108 3.58376,18.32958 3.58376,26.73969 0,4.72522 0.70265,9.44418 1.94305,13.04947 2.94804,8.56863 4.88996,25.83867 5.58461,49.66553 0.49748,17.06353 1.01891,22.73808 2.52697,27.5 1.04508,3.3 2.60677,10.44535 3.47041,15.87857 0.86365,5.43321 2.86724,13.78232 4.45242,18.55358 3.23866,9.74812 6.13702,27.03779 6.2977,37.56785 0.17371,11.38407 -4.5589,19.91217 -13.10807,23.62052 -8.1924,3.55361 -15.5449,1.84143 -22.86451,-5.32446 -5.71557,-5.59554 -8.00893,-12.00158 -8.69798,-24.29606 -0.30864,-5.50698 -1.44408,-12.86198 -2.52713,-16.36983 -1.08168,-3.50341 -2.73089,-12.27841 -3.66492,-19.5 -1.05685,-8.17118 -2.77732,-16.12947 -4.55539,-21.07157 -2.46713,-6.85732 -2.85517,-9.38277 -2.8426,-18.5 0.0169,-12.25671 -2.23215,-36.92983 -5.0644,-55.5586 -1.08706,-7.15 -1.97055,-17.16546 -1.96331,-22.25658 0.007,-5.09112 -0.643,-13.64112 -1.44497,-19 -0.80196,-5.35888 -1.93003,-15.59342 -2.50681,-22.74342 -1.16376,-14.42626 -2.29715,-19.03471 -5.04271,-20.50409 -3.66905,-1.96361 -6.99236,1.87723 -6.99236,8.08128 0,1.64069 -1.17081,5.76479 -2.6018,9.16467 -1.47049,3.49373 -3.20519,10.54641 -3.98949,16.21987 -1.44274,10.43652 -3.20443,16.96364 -6.5932,24.42815 -1.16031,2.55584 -2.3624,8.295 -2.87727,13.737 -1.01765,10.75632 -3.10083,15.73419 -9.29282,22.20564 -6.59297,6.89054 -10.45589,8.42288 -20.20265,8.01397 -7.46832,-0.31333 -8.62141,-0.64016 -12.04948,-3.41528 -4.45135,-3.6035 -8.13264,-8.91086 -14.61616,-21.0723 -5.6354,-10.57057 -7.35694,-13.67729 -15.05701,-27.17209 -3.23655,-5.67225 -7.22149,-13.0076 -8.85541,-16.30079 -4.25343,-8.57284 -11.62109,-19.68528 -13.83826,-20.87187 -2.70677,-1.44862 -3.76512,-1.27549 -6.02645,0.98584 -2.66365,2.66365 -2.66365,11.83715 0,22 1.62051,6.18289 1.97349,10.92449 2.00996,27 0.0243,10.725 0.50304,23.775 1.06382,29 0.56077,5.225 1.36526,18.95 1.78774,30.5 l 0.76816,21 3.32582,7 c 3.1701,6.67224 3.32147,7.51506 3.23281,18 -0.11591,13.70819 0.98513,20.13653 4.87145,28.44139 2.76076,5.89962 3.10167,7.74598 3.60726,19.53698 0.53693,12.522 0.4672,13.15592 -1.81753,16.52163 -3.69263,5.43975 -8.10452,7.05181 -21.06926,7.69851 -8.90925,0.4444 -12.54136,1.0908 -17.28023,3.07534 -7.78453,3.25999 -22.2875,3.59344 -33.13705,0.76187 -6.76179,-1.76472 -7.44875,-1.7752 -13.0656,-0.19919 -7.97716,2.23828 -14.48649,2.11779 -19.3394,-0.35798 -4.72227,-2.40912 -11.86055,-11.16458 -15.88077,-19.47855 -4.21782,-8.72262 -15.4427,-45.20688 -18.58383,-60.40308 -2.08513,-10.08749 -7.17809,-26.22455 -10.7612,-34.09692 -2.82079,-6.19749 -9.485,-25.66227 -13.18133,-38.5 -0.95016,-3.3 -3.00887,-9.15 -4.57491,-13 -1.56604,-3.85 -4.93161,-12.85 -7.47905,-20 -2.54743,-7.15 -5.91263,-16.6 -7.47821,-21 -2.85229,-8.01624 -11.3482,-34.80458 -12.52742,-39.5 -1.46052,-5.81554 -4.88102,-13.13824 -6.55562,-14.03446 -2.35864,-1.2623 -2.51813,-1.24016 -4.36418,0.60589 -1.08033,1.08033 -1.57143,3.45172 -1.57143,7.588 0,4.68296 -0.76897,7.76551 -3.46918,13.90692 -2.34904,5.34266 -3.81307,10.65763 -4.53419,16.46079 -0.60814,4.89392 -2.15107,11.01613 -3.59677,14.27165 -1.39248,3.13567 -4.09614,11.45952 -6.00815,18.49745 -1.912,7.03793 -3.88754,13.87769 -4.39007,15.19945 -0.50254,1.32177 -1.44056,6.36235 -2.08451,11.2013 -0.64394,4.83894 -2.27875,12.39919 -3.63291,16.80055 -1.35416,4.40135 -2.83893,11.37746 -3.2995,15.50246 -0.56711,5.07918 -1.95114,9.92082 -4.28789,15 -1.89778,4.125 -4.0022,9.975 -4.67651,13 -0.6743,3.025 -2.50917,9.55 -4.07749,14.5 -3.84901,12.14842 -5.63891,19.74081 -6.4831,27.5 -0.38895,3.575 -1.125,7.60358 -1.63566,8.95241 -0.51066,1.34882 -1.58571,8.07087 -2.38898,14.93788 -1.73292,14.81428 -4.29977,21.31266 -11.2346,28.44215 -6.78803,6.97858 -12.58425,9.64932 -21.98414,10.12969 -4.24399,0.21689 -8.84135,0.19668 -10.21635,-0.0449 z M 89.99574,607.61494 c 0.44496,-0.6875 0.832,-8 0.86009,-16.25 0.0757,-22.23206 1.31369,-59.52607 2.97099,-89.5 0.80588,-14.575 1.46809,-33.60543 1.47158,-42.28984 0.006,-13.84988 -0.24057,-16.27385 -2.00345,-19.72939 -2.00523,-3.93057 -6.25346,-6.98077 -9.7226,-6.98077 -1.00745,0 -4.2923,-0.70175 -7.29966,-1.55945 -3.00736,-0.85769 -9.65568,-2.63481 -14.77405,-3.94914 -5.11836,-1.31434 -11.72283,-3.29391 -14.6766,-4.39906 -8.30727,-3.10815 -24.91643,-4.45546 -37.51728,-3.04334 -26.11463,2.92655 -56.34777,16.83876 -71.25586,32.7894 -8.83669,9.45465 -17.040369,23.48566 -21.591308,36.92828 -6.094235,18.00124 -5.719285,26.25981 1.687669,37.17221 5.715389,8.42028 7.644919,9.0611 27.283429,9.0611 11.06093,0 19.46329,-0.53454 25.0156,-1.59144 6.68401,-1.27232 9.76412,-1.38215 15.36047,-0.54774 3.85,0.57403 10.375,1.323 14.5,1.66438 12.66957,1.04853 37.79807,7.40084 46.5,11.75489 11.60164,5.80493 26.27553,18.36569 29.95752,25.64344 3.303,6.52865 6.34566,17.43647 7.13437,25.57647 0.37304,3.85 1.0833,7.7875 1.57836,8.75 1.04904,2.03954 3.35897,2.29502 4.52073,0.5 z M 433.55476,374.76746 c -0.6875,-0.71639 -1.25,-2.05742 -1.25,-2.98008 0,-2.1431 1.38798,-3.16735 7.20183,-5.31455 4.89519,-1.80793 14.3286,-10.86538 17.29909,-16.60966 1.4011,-2.70944 1.29376,-3.24864 -1.9277,-9.68371 -3.95319,-7.89674 -5.76779,-15.82992 -5.76116,-25.18697 0.003,-3.64515 3.4178,-40.60255 7.58938,-82.12755 5.4245,-53.99696 8.17572,-77.63142 9.65988,-82.98367 7.7966,-28.11643 27.3075,-42.04178 58.84864,-42.00155 13.56421,0.0173 21.95562,1.7303 30.32298,6.19006 13.01916,6.93914 19.71671,20.22084 19.75228,39.1701 0.0243,12.95498 -14.65801,155.02576 -16.94547,163.96963 -5.57415,21.79474 -18.89685,35.93588 -38.68749,41.06415 -9.00262,2.33281 -21.68732,3.00186 -31.68261,1.67109 -8.78161,-1.16919 -8.85612,-1.1606 -13.5,1.55745 -2.56831,1.50321 -6.69465,4.14958 -9.16965,5.8808 -2.475,1.73123 -6.86697,4.13733 -9.75992,5.34688 -6.50628,2.7203 -20.12397,3.9821 -21.99008,2.03758 z m 76.32341,-86.36875 c 5.83097,-2.43633 6.85797,-6.30249 10.3689,-39.03377 1.71089,-15.95 3.77323,-34.85 4.58298,-42 0.80976,-7.15 1.47283,-15.84712 1.4735,-19.32692 10e-4,-5.71963 -0.29138,-6.61952 -3.04706,-9.3752 -2.67053,-2.67053 -3.55016,-2.98096 -7.09829,-2.50505 -5.28018,0.70822 -8.44968,3.80941 -9.77185,9.56124 -0.58737,2.55526 -2.39724,16.34593 -4.02192,30.64593 -1.62468,14.3 -3.95208,34.61485 -5.172,45.1441 -2.51102,21.67283 -2.14482,24.4645 3.53345,26.93698 3.96604,1.72693 4.91771,1.72201 9.15229,-0.0473 z m -350.62285,71.16855 c -13.54449,-3.8444 -20.61338,-14.48471 -22.44876,-33.79054 -0.78076,-8.21257 1.89588,-35.61166 4.53401,-46.41178 4.16435,-17.04823 13.5519,-30.32126 25.41417,-35.93301 3.10371,-1.46829 11.7217,-4.90637 19.15109,-7.64018 15.1083,-5.55944 20.10196,-8.3284 23.69547,-13.13904 3.7437,-5.01171 4.44664,-8.37141 7.17391,-34.28777 2.94065,-27.94397 3.02425,-30.64268 1.06654,-34.42848 -1.71206,-3.31076 -3.30815,-4.07152 -8.54205,-4.07152 -5.1239,0 -9.36153,3.59951 -10.85833,9.22323 -0.62606,2.35222 -2.50279,17.32677 -4.1705,33.27677 -1.66771,15.95 -3.2282,29.5625 -3.46777,30.25 -0.32891,0.9439 -5.34082,1.25 -20.46696,1.25 l -20.03138,0 0.006,-2.75 c 0.0111,-5.37789 6.95537,-67.21424 8.07905,-71.94112 0.62875,-2.64489 2.89343,-8.49797 5.03263,-13.00686 9.02057,-19.01308 26.39181,-28.32091 52.79261,-28.28724 19.13542,0.0244 30.13923,3.79711 38.63463,13.24604 6.31064,7.01895 8.63818,13.90557 9.20631,27.23918 0.39196,9.19925 -1.20528,26.87929 -9.75693,108 -5.62409,53.35 -10.6786,97.5625 -11.23224,98.25 -0.74727,0.92794 -6.38566,1.25 -21.88417,1.25 -15.96083,0 -20.91048,-0.29438 -21.01734,-1.25 -0.0769,-0.6875 -0.0382,-2.9375 0.086,-5 0.12417,-2.0625 -0.10376,-3.75 -0.50652,-3.75 -0.40275,0 -2.93082,2.05647 -5.61792,4.56994 -6.73223,6.29722 -14.0847,9.48413 -23.08173,10.00473 -4.22333,0.24438 -9.13566,-0.11911 -11.78948,-0.87235 z m 40.82138,-42.70448 c 3.09316,-2.88172 4.01981,-7.15633 6.24423,-28.80463 2.2521,-21.91765 2.3134,-23.19321 1.11446,-23.19321 -1.09094,0 -10.40206,7.19053 -15.38706,11.8827 -5.16712,4.86358 -7.85642,12.40793 -8.49645,23.83528 -0.56126,10.02095 0.47931,14.27657 4.1132,16.82185 3.08645,2.16183 9.82528,1.86756 12.41162,-0.54199 z M 22.84241,354.92586 c -0.46877,-0.75849 7.07823,-76.67306 11.48842,-115.56092 0.56137,-4.95 3.71412,-34.875 7.00612,-66.5 3.29199,-31.625 6.24744,-59.19585 6.56766,-61.26854 l 0.58221,-3.76855 22.65897,0.26855 22.65897,0.26854 -0.35526,6 c -0.19539,3.3 -4.7437,47.625 -10.10735,98.5 -5.89477,55.91275 -9.3935,92.89554 -8.84551,93.5 0.5399,0.59553 10.26956,1.11377 24.05531,1.28129 12.7318,0.15471 23.31011,0.44268 23.50737,0.63993 0.51456,0.51457 -4.58591,45.49688 -5.28755,46.63217 -0.78361,1.26789 -93.14584,1.2753 -93.92936,0.008 z m 236.89752,-0.36926 c -0.38435,-1.00161 11.05029,-113.71749 16.09872,-158.69166 0.27783,-2.475 1.84063,-17.325 3.4729,-33 4.65566,-44.70916 5.04244,-48.29699 5.57891,-51.75 l 0.50493,-3.25 20.95468,0 20.95469,0 0.011,3.25 c 0.006,1.7875 -0.96734,12.8141 -2.1631,24.50357 -1.19576,11.68946 -1.89921,21.52847 -1.56321,21.86447 0.336,0.336 2.77189,-0.4467 5.4131,-1.73933 8.79244,-4.30309 25.85181,-2.75967 37.58741,3.40066 10.05512,5.27821 15.56641,13.80501 17.83536,27.59401 1.25913,7.65206 1.14604,9.59042 -2.66201,45.62662 -0.81369,7.7 -2.8382,27.05 -4.49893,43 -1.71851,16.50491 -3.89242,32.21636 -5.04547,36.46489 -5.28076,19.4576 -17.07386,31.82415 -34.91417,36.61188 -9.2411,2.48 -25.3808,2.53381 -29.84293,0.0995 -3.91439,-2.13549 -4.26976,-1.92121 -5.07901,3.0627 l -0.61069,3.76104 -20.75726,0.27036 c -16.68474,0.21732 -20.85882,0.006 -21.27494,-1.0787 z m 64.74483,-48.35455 c 4.28581,-3.87861 4.86998,-7.05897 9.94129,-54.12204 5.65575,-52.4869 5.65015,-52.92582 -0.71511,-55.9612 -3.12779,-1.49154 -3.91564,-1.51315 -7.61281,-0.20879 -6.93727,2.44745 -7.07172,3.01551 -13.17663,55.67098 -5.94349,51.26318 -5.96752,52.8935 -0.8221,55.78952 3.38677,1.90618 9.63976,1.31626 12.38536,-1.16847 z m 60.3571,48.72291 c -0.51704,-0.83658 0.72858,-14.14219 5.99706,-64.06002 0.84171,-7.975 3.33433,-31.825 5.53916,-53 2.20484,-21.175 4.66673,-44.575 5.47088,-52 0.80416,-7.425 2.80945,-26.55 4.45621,-42.5 1.64676,-15.95 3.24073,-30.4625 3.54216,-32.25 l 0.54806,-3.25 21.89567,0 c 12.04261,0 22.13943,0.39442 22.43737,0.8765 0.60796,0.98369 -1.78069,25.14641 -5.3999,54.6235 -0.60776,4.95 -4.69584,43.425 -9.08463,85.5 -4.38879,42.075 -8.66164,82.98157 -9.49523,90.9035 -0.83358,7.92192 -1.75103,14.78442 -2.03878,15.25 -0.72517,1.17335 -43.14095,1.08297 -43.86803,-0.0935 z"
       id="path3037"
       inkscape:connector-curvature="0" />
    <path
       style="fill:#060606"
       d="m 433.30476,372.70365 c 0,-3.01144 1.71823,-4.83871 4.54996,-4.83871 1.18248,0 3.98209,-1.32718 6.22135,-2.9493 5.36549,-3.88674 14.22869,-14.60899 14.22869,-17.21314 0,-1.13224 -1.58357,-5.27138 -3.51904,-9.19809 -6.7398,-13.67379 -6.74467,-13.42053 1.92639,-100.13947 4.1796,-41.8 8.24272,-79.16528 9.02916,-83.03395 5.04304,-24.80793 17.91137,-39.1149 40.56349,-45.09836 8.93775,-2.36087 29.10375,-2.33125 38,0.0558 17.92683,4.81017 27.65233,16.3298 30.12159,35.67829 0.98302,7.70268 0.44419,14.60957 -6.50622,83.3982 -4.16791,41.25 -8.06013,77.7 -8.64939,81 -4.34174,24.31479 -15.95354,39.14433 -36.19976,46.23104 -6.40743,2.24277 -8.97997,2.5567 -21.76622,2.65616 -7.975,0.062 -16.53298,-0.093 -19.01773,-0.34458 -4.14476,-0.41961 -5.1767,-0.014 -12.5,4.91306 -12.28344,8.26423 -17.29631,10.2278 -27.61261,10.81601 l -8.86966,0.50572 0,-2.4387 z m 77.91481,-84.29466 c 5.24635,-2.71299 5.9936,-6.10925 10.76181,-48.9122 2.45885,-22.07252 4.55001,-44.27977 4.64701,-49.34946 0.16753,-8.75551 0.0431,-9.35139 -2.48272,-11.88636 -5.05223,-5.0706 -14.48429,-2.88712 -17.3708,4.02126 -0.74956,1.79395 -3.81045,24.27726 -6.80198,49.96292 -5.74497,49.32702 -5.83462,52.4446 -1.6067,55.86979 2.64237,2.14067 9.00111,2.28614 12.85338,0.29405 z m -353.69302,70.04357 c -16.90915,-5.50678 -22.72022,-23.63064 -18.8123,-58.67274 2.6654,-23.90042 7.67765,-37.79755 17.1284,-47.4907 6.10204,-6.25856 9.52445,-8.06727 29.46211,-15.57041 17.49372,-6.58342 22.24752,-9.46633 26.22916,-15.90647 2.59975,-4.205 2.96718,-6.2714 5.77277,-32.46533 1.64797,-15.38597 2.72892,-29.39973 2.40213,-31.1417 -2.00917,-10.70976 -15.85894,-11.19319 -21.23353,-0.74116 -1.01447,1.97285 -3.50347,21.9456 -6.28095,50.40089 -1.84032,18.85408 0.53267,17 -21.75784,17 -14.21743,0 -19.03428,-0.31058 -19.38673,-1.25 -0.69343,-1.84827 5.86027,-61.93935 7.77071,-71.25 4.51845,-22.02084 17.28576,-35.67084 38.48428,-41.14494 8.19026,-2.11497 28.26365,-2.37152 36,-0.4601 8.81261,2.17733 15.414,5.77115 20.40809,11.11023 5.92529,6.33461 8.48552,12.31961 9.85283,23.03272 1.02255,8.01183 0.43758,14.70932 -9.49385,108.69701 -5.82094,55.08751 -10.87639,100.63295 -11.23432,101.21209 -0.42239,0.68344 -8.04903,1.05299 -21.73106,1.05299 l -21.08027,0 0.57951,-4.89311 c 0.31874,-2.69121 0.30797,-5.16465 -0.0239,-5.49654 -0.33188,-0.33189 -3.21716,1.88964 -6.41172,4.93673 -7.83094,7.46945 -13.1805,9.73928 -23.86529,10.1261 -5.36334,0.19417 -10.07874,-0.20643 -12.77821,-1.08556 z m 42.14967,-40.66517 c 1.45265,-1.14266 3.09658,-2.92847 3.65317,-3.96847 1.51417,-2.82925 6.08291,-48.24644 4.96573,-49.36362 -0.88228,-0.88228 -9.39093,5.01784 -16.33361,11.32618 -7.46344,6.78151 -12.08038,26.8326 -8.5261,37.02839 2.21271,6.34739 11.05434,9.0572 16.24081,4.97752 z M 23.30476,351.02394 c 0,-2.11254 0.44717,-7.40004 0.99371,-11.75 0.54655,-4.34995 3.00188,-27.034 5.4563,-50.409 2.45443,-23.375 7.67859,-73.1 11.60925,-110.5 3.93066,-37.4 7.6127,-68.57127 8.18231,-69.26949 0.79071,-0.96923 6.02887,-1.20574 22.14705,-1 l 21.11138,0.26949 -0.12105,6 c -0.0666,3.3 -4.48881,47.54745 -9.82718,98.32768 -5.33837,50.78022 -9.46052,92.96772 -9.16034,93.75 0.45008,1.17287 4.59062,1.42232 23.60857,1.42232 19.89816,0 23.1443,0.21247 23.65695,1.5484 0.55602,1.44896 -3.22496,39.8758 -4.29999,43.7016 -0.45928,1.63448 -3.55681,1.75 -46.92435,1.75 l -46.43261,0 0,-3.841 z m 237,0.744 c 0,-1.70334 3.1668,-33.09084 7.03732,-69.75 3.87053,-36.65915 9.51544,-90.25588 12.54424,-119.10384 3.0288,-28.84796 5.9921,-53.03546 6.58512,-53.75 1.28799,-1.55193 39.3399,-1.90655 40.28618,-0.37544 0.31399,0.50805 -0.55675,11.42055 -1.93497,24.25 -1.37823,12.82945 -2.50857,23.88878 -2.51188,24.57628 -0.009,1.85562 1.93045,1.52753 7.41347,-1.25419 10.91236,-5.5362 32.84949,-1.57169 43.23846,7.81412 9.79023,8.84488 13.0548,23.8629 10.36672,47.69007 -0.52742,4.675 -2.33582,22 -4.01867,38.5 -4.95029,48.53642 -5.98683,56.3361 -8.57607,64.53249 -7.1495,22.63218 -24.93921,34.89264 -50.71204,34.95015 -4.69328,0.0105 -9.20704,-0.57801 -11.37212,-1.48264 -5.26302,-2.19903 -6.02354,-1.91651 -6.72977,2.5 l -0.63963,4 -20.48818,0 -20.48818,0 0,-3.097 z m 64.90439,-45.476 c 1.68181,-1.41515 3.49867,-4.22765 4.03748,-6.25 1.27754,-4.79514 10.05813,-85.91673 10.05813,-92.92445 0,-8.4754 -2.77892,-12.16557 -9.20295,-12.22075 -2.03662,-0.0175 -4.77475,0.45655 -6.08473,1.05341 -5.14812,2.34565 -5.63682,4.62381 -11.31584,52.75127 -2.96356,25.11494 -5.39013,47.3806 -5.39238,49.47926 -0.008,7.25443 3.19073,10.60497 10.16917,10.65246 3.59083,0.0244 5.38155,-0.56417 7.73112,-2.5412 z m 60.09561,45.69092 c 0,-1.58514 1.55884,-17.67264 3.46409,-35.75 1.90526,-18.07735 5.95125,-56.71792 8.99111,-85.86792 3.03985,-29.15 6.18464,-58.625 6.98842,-65.5 0.80378,-6.875 2.44213,-22.175 3.64078,-34 1.25258,-12.35712 2.65484,-21.81243 3.29748,-22.23469 0.61497,-0.40408 10.24474,-0.74158 21.3995,-0.75 17.55732,-0.0133 20.36269,0.19656 20.88672,1.56216 0.33294,0.86761 -1.91473,24.60511 -4.99482,52.75 -3.08009,28.14489 -8.79356,81.99753 -12.69661,119.67253 -3.90304,37.675 -7.30307,69.5125 -7.55561,70.75 -0.45901,2.24925 -0.46629,2.25 -21.94011,2.25 l -21.48095,0 0,-2.88208 z"
       id="path3035"
       inkscape:connector-curvature="0" />
  </g>
</svg>
